<svg id="图层_1" data-name="图层 1" xmlns="http://www.w3.org/2000/svg" viewBox="0 0 138.95 35.11"><defs><style>.cls-1{fill:#fff;}</style></defs><title>logo-白色</title><path id="_复合路径_" data-name="&lt;复合路径&gt;" class="cls-1" d="M88.61,23.17v2.1h3.32v2.51H88.61V41.1H85.8V29a1.17,1.17,0,0,0-1.12-1.22H82.46V25.27H85.8v-1a1,1,0,0,0-1-1l-2.1.08V20.72L92,20.39v.73a1.91,1.91,0,0,1-1.76,2ZM82.49,41.1,83,28.66h0a2.21,2.21,0,0,1,2.09,2.39l-.36,8.35a1.7,1.7,0,0,1-1.63,1.7Zm9-12.44.41,10.05a2.21,2.21,0,0,1-2.1,2.39h0l-.43-10a2.23,2.23,0,0,1,2.12-2.42Zm12.09,4.67h2.25V36h-2.25v5.11H100v-2.8A2.22,2.22,0,0,0,97.86,36H92.65V33.33H100v-13h3.64ZM99.17,27h0A1.38,1.38,0,0,0,98,28.88l1.11,2.94A.12.12,0,0,1,99,32H96.6a1.48,1.48,0,0,1-1.36-1l-2-5.28h0a1.38,1.38,0,0,0,1.17-1.92l-1.12-3a.11.11,0,0,1,.1-.15h2.21a1.73,1.73,0,0,1,1.59,1.16Z" transform="translate(-18.05 -12.35)"/><g id="_编组_" data-name="&lt;编组&gt;"><path id="_路径_" data-name="&lt;路径&gt;" class="cls-1" d="M116.73,24.63h1.5v2.84h-1.5v3.07l1.5-.49v3.13l-1.5.52v7.38h-4.06V35l-4.81,1.58v-1.3a2.5,2.5,0,0,1,1.65-2.4l3.16-1V27.47h-2.06a2.37,2.37,0,0,1-2.22-2.83l.51-3.14H112l-.37,3.13h1.07V20.35h4.06Z" transform="translate(-18.05 -12.35)"/><path id="_路径_2" data-name="&lt;路径&gt;" class="cls-1" d="M129.32,22.79h-6.09l.51-2.47h-3.88L119.31,23a2.16,2.16,0,0,0,2,2.67h6.35a38.72,38.72,0,0,1-7.86,4.45v3.6a47.18,47.18,0,0,0,7.86-4.16v2.06a52.63,52.63,0,0,1-7.76,4.51v3.68a87.92,87.92,0,0,0,7.76-4.19v2.14a.89.89,0,0,1-.24.63.77.77,0,0,1-.59.26h-.59l-.43,2.5h2.62a2.68,2.68,0,0,0,1.12-.24,2.93,2.93,0,0,0,.94-.67,3.37,3.37,0,0,0,.64-1,3.16,3.16,0,0,0,.24-1.24V25A2.15,2.15,0,0,0,129.32,22.79Z" transform="translate(-18.05 -12.35)"/></g><path id="_复合路径_2" data-name="&lt;复合路径&gt;" class="cls-1" d="M78.94,23H70.7a.2.2,0,0,1-.2-.2V20.35H66.92v2.46a.2.2,0,0,1-.2.2H58.46A1.46,1.46,0,0,0,57,24.46V37.39h8.14a1.78,1.78,0,0,1,1.78,1.78v.36h0v1.55h3.6v-.71h0V37.59a.2.2,0,0,1,.2-.2h7.13a2.56,2.56,0,0,0,2.57-2.57V24.46A1.46,1.46,0,0,0,78.94,23ZM60.58,34.91V25.69a.2.2,0,0,1,.2-.2H65a1.9,1.9,0,0,1,1.9,1.9v7.51Zm16.23,0H70.5V25.69a.2.2,0,0,1,.2-.2h3.75a2.37,2.37,0,0,1,2.37,2.37Z" transform="translate(-18.05 -12.35)"/><g id="_编组_2" data-name="&lt;编组&gt;"><path id="_复合路径_3" data-name="&lt;复合路径&gt;" class="cls-1" d="M155.55,28.87H157v2.67h-1.45v3.29q-1.27.7-2.54,1.31t-2.59,1.15q1.64.38,3.28.65t3.3.4v2.75a58.34,58.34,0,0,1-11.7-2,56.06,56.06,0,0,1-5.74,1.32,58.23,58.23,0,0,1-6,.73V38.34q1.66-.13,3.29-.4t3.29-.65q-1.35-.54-2.61-1.15T135,34.83V31.54H133.6V28.87h21.95Zm-3.64,2.67H138.7v1.83q1.66.7,3.29,1.32l.22.08a8.72,8.72,0,0,0,6.12,0l.26-.1q1.65-.62,3.31-1.32Z" transform="translate(-18.05 -12.35)"/><path id="_路径_3" data-name="&lt;路径&gt;" class="cls-1" d="M156.76,23.67a3.15,3.15,0,0,0-.63-.94,2.89,2.89,0,0,0-.92-.63,2.76,2.76,0,0,0-1.11-.23h-6.73l-.63-1.51h-4l.66,1.51h-7.28a2.51,2.51,0,0,0-2.49,2.53v2.44h3.64v-.94h0V24.53h15.27a.78.78,0,0,1,.58.24.82.82,0,0,1,.24.59h0v1.46H157v-2A2.84,2.84,0,0,0,156.76,23.67Z" transform="translate(-18.05 -12.35)"/><rect id="_矩形_" data-name="&lt;矩形&gt;" class="cls-1" x="116.98" y="15.07" width="3.67" height="1.54"/><rect id="_矩形_2" data-name="&lt;矩形&gt;" class="cls-1" x="133.86" y="15.07" width="3.67" height="1.54"/></g><g id="_编组_3" data-name="&lt;编组&gt;"><path id="_路径_4" data-name="&lt;路径&gt;" class="cls-1" d="M31.75,12.35h.37C33,13,33.77,14,34.7,14.69a8,8,0,0,0,3.77,1.65l-.13,1a9,9,0,0,1-4.81-2.28,15.28,15.28,0,0,0-1.7-1.52q0,.51,0,1c0,10.59,0,21.18,0,31.78a15.65,15.65,0,0,0,3.81-3.2c1.07-1.22,2.06-2.52,3.12-3.75l.8.64c-1.09,1.34-2.16,2.69-3.3,4a20.55,20.55,0,0,1-4.12,3.42h-.38a26.24,26.24,0,0,1-6.49-4.85A25.77,25.77,0,0,1,18.58,29,38.76,38.76,0,0,1,18,23.55V22.24a39.69,39.69,0,0,1,.51-5.57,4.07,4.07,0,0,1,.26-1.06c.15-.29.53-.23.8-.23a22.57,22.57,0,0,0,8.1-.82A10.55,10.55,0,0,0,31.75,12.35Z" transform="translate(-18.05 -12.35)"/><path id="_路径_5" data-name="&lt;路径&gt;" class="cls-1" d="M37.05,18.77q1.5,0,3,0,0,1.5,0,3c-.9,0-1.81,0-2.71,0q-.64.69-1.33,1.33c0,.6,0,1.19,0,1.79H33.77q0-1,0-2.09c.65,0,1.3,0,1.95,0A12,12,0,0,0,37,21.51C37.07,20.6,37,19.69,37.05,18.77Z" transform="translate(-18.05 -12.35)"/><path id="_路径_6" data-name="&lt;路径&gt;" class="cls-1" d="M36.79,26.24h3.53c0,1,0,2.09,0,3.13l.92.92c.77,0,1.55,0,2.32,0q.65-.68,1.33-1.33c0-.6,0-1.2,0-1.8H47v2.09c-.6,0-1.21,0-1.81,0a8.34,8.34,0,0,0-1.31,1.31c-.06.91,0,1.82,0,2.73-1,0-2,0-3,0,0-.95,0-1.9,0-2.85l-.67-.67H36.93L35.61,31.1c0,.52,0,1,0,1.56H33.51c0-.65,0-1.31,0-2h1.95l1.32-1.32C36.79,28.32,36.77,27.28,36.79,26.24Z" transform="translate(-18.05 -12.35)"/><path id="_路径_7" data-name="&lt;路径&gt;" class="cls-1" d="M41.11,16.28h1.44q0,.72,0,1.44H41.11Q41.1,17,41.11,16.28Z" transform="translate(-18.05 -12.35)"/><path id="_路径_8" data-name="&lt;路径&gt;" class="cls-1" d="M43.6,20.48h2.35q0,1.17,0,2.35H43.6Q43.59,21.65,43.6,20.48Z" transform="translate(-18.05 -12.35)"/><path id="_路径_9" data-name="&lt;路径&gt;" class="cls-1" d="M40.84,24h1.44q0,.72,0,1.44H40.84Q40.84,24.73,40.84,24Z" transform="translate(-18.05 -12.35)"/><path id="_路径_10" data-name="&lt;路径&gt;" class="cls-1" d="M38.35,34.36h1.44q0,.72,0,1.44H38.35Q38.35,35.08,38.35,34.36Z" transform="translate(-18.05 -12.35)"/><path id="_路径_11" data-name="&lt;路径&gt;" class="cls-1" d="M40.45,36.46H43.2q0,1.43,0,2.87H40.45Q40.44,37.89,40.45,36.46Z" transform="translate(-18.05 -12.35)"/><path id="_路径_12" data-name="&lt;路径&gt;" class="cls-1" d="M34.17,36.85h2.61q0,1.3,0,2.61H34.17Q34.15,38.16,34.17,36.85Z" transform="translate(-18.05 -12.35)"/></g></svg>