<?xml version="1.0" encoding="utf-8"?>
<!-- Generator: Adobe Illustrator 21.0.0, SVG Export Plug-In . SVG Version: 6.00 Build 0)  -->
<svg version="1.1" id="图层_1" xmlns="http://www.w3.org/2000/svg" xmlns:xlink="http://www.w3.org/1999/xlink" x="0px" y="0px"
	 viewBox="0 0 200 200" style="enable-background:new 0 0 200 200;" xml:space="preserve">
<style type="text/css">
	.st0{fill:#9AEFD3;}
</style>
<path class="st0" d="M192.3,0H7.7C3.8,0,0,3.1,0,7.7v45.4c0,4.6,3.1,7.7,7.7,7.7h184.6c4.6,0,7.7-3.1,7.7-7.7V7.7
	C200,3.1,196.9,0,192.3,0z M184.6,45.4H15.4v-30h169.2L184.6,45.4L184.6,45.4z"/>
<path class="st0" d="M139.2,38.5H170c4.6,0,7.7-3.1,7.7-7.7s-3.1-7.7-7.7-7.7h-30.8c-4.6,0-7.7,3.1-7.7,7.7S135.4,38.5,139.2,38.5z
	 M192.3,69.2H7.7c-4.6,0-7.7,3.1-7.7,7.7v46.2c0,4.6,3.1,7.7,7.7,7.7h184.6c4.6,0,7.7-3.1,7.7-7.7V76.9
	C200,73.1,196.2,69.2,192.3,69.2z M184.6,115.4H15.4V84.6h169.2L184.6,115.4L184.6,115.4z"/>
<path class="st0" d="M139.2,107.7H170c4.6,0,7.7-3.1,7.7-7.7s-3.1-7.7-7.7-7.7h-30.8c-4.6,0-7.7,3.1-7.7,7.7
	C131.5,104.6,134.6,107.7,139.2,107.7z M192.3,139.2H7.7c-4.6,0-7.7,3.1-7.7,7.7v45.4c0,4.6,3.1,7.7,7.7,7.7h184.6
	c4.6,0,7.7-3.1,7.7-7.7v-45.4C200,142.3,196.2,139.2,192.3,139.2L192.3,139.2z M184.6,184.6H15.4v-30h169.2V184.6z"/>
<path class="st0" d="M139.2,176.9H170c4.6,0,7.7-3.1,7.7-7.7s-3.1-7.7-7.7-7.7h-30.8c-4.6,0-7.7,3.1-7.7,7.7
	S134.6,176.9,139.2,176.9z"/>
</svg>
