<?xml version="1.0" encoding="utf-8"?>
<!-- Generator: Adobe Illustrator 21.0.0, SVG Export Plug-In . SVG Version: 6.00 Build 0)  -->
<svg version="1.1" id="图层_1" xmlns="http://www.w3.org/2000/svg" xmlns:xlink="http://www.w3.org/1999/xlink" x="0px" y="0px"
	 viewBox="0 0 200.2 200" style="enable-background:new 0 0 200.2 200;" xml:space="preserve">
<style type="text/css">
	.st0{fill:#5BBFFC;}
</style>
<path class="st0" d="M100,118.8c16.9-3.9,29.5-20.2,29.5-37.5V62.5L100,50L70.5,62.5v18.8C70.5,98.6,83.1,114.8,100,118.8z
	 M77.1,66.6l22.9-9.7v27.5h22.9c-1.7,12.9-10.7,24.3-22.9,27.9V84.4H77.1V66.6z"/>
<path class="st0" d="M175,25H25c-6.9,0-12.5,5.6-12.5,12.5v100c0,6.9,5.6,12.5,12.5,12.5h37.5v12.5h75V150H175
	c6.9,0,12.5-5.6,12.5-12.5v-100C187.5,30.6,181.9,25,175,25z M175,137.5H25v-100h150V137.5z"/>
</svg>
